<svg xmlns="http://www.w3.org/2000/svg" viewBox="0 0 512 512" width="512" height="512" role="img" aria-labelledby="title desc">
  <title id="title">Acpus app icon</title>
  <desc id="desc">Rounded ink tile containing the reverse interlaced relay ligature.</desc>
  <rect width="512" height="512" rx="116" fill="#101522"/>
  <path d="M 0 394 L 512 252 L 512 512 L 0 512 Z" fill="#3155FF" opacity="0.16"/>
  <g transform="translate(56 56) scale(2)">
    <path d="M 97 75 C 108 61 124 54 141 55 C 165 56 181 73 179 96 C 177 119 158 132 135 128 C 108 123 82 127 58 142" fill="none" stroke="#8FA2FF" stroke-width="15" stroke-linecap="round" stroke-linejoin="round"/>
    <path d="M 29 168 C 42 137 55 105 70 69 C 78 50 85 39 100 39 C 115 39 123 51 130 70 L 171 168" fill="none" stroke="#F4F0E4" stroke-width="18" stroke-linecap="round" stroke-linejoin="round"/>
    <path d="M 179 96 C 177 119 158 132 135 128" fill="none" stroke="#8FA2FF" stroke-width="15" stroke-linecap="butt" stroke-linejoin="round"/>
    <circle cx="97" cy="75" r="7" fill="#FF755D"/>
  </g>
</svg>
